<svg xmlns="http://www.w3.org/2000/svg" xmlns:xlink="http://www.w3.org/1999/xlink" version="1.1" id="Layer_1" x="0px" y="0px" viewBox="0 0 4000 4000" style="enable-background:new 0 0 4000 4000;" xml:space="preserve" width="512" height="512">
<g>
	<path d="M1285.2,756.2c2.7,1.7,5,3.8,6.9,6.2c54.9,47.6,123.1,75.1,195.7,75.1c142.1,0,269.6-108.3,309.9-263.4   c2.7-10.5,0.5-21.3-6.1-29.8c-6.5-8.4-16.3-13.2-27-13.2h-544.2c-13.1,0-25.1,6-33,16.4c-8.1,10.7-10.5,24.4-6.7,37.4   C1201.1,654,1237.9,712.8,1285.2,756.2z"/>
	<path d="M1571.9,3258.8c100-7.4,194.5-28.7,285.9-49.4c40.2-9.1,71.7-17.2,108.3-26.6l5.8-1.5c86.2-22.2,139-38,194.9-54.7   c27.4-8.2,55.6-16.6,88.8-26.1c210.1-60.1,325.9-93.3,419.1-73.2c63.3,13.6,137.1,44.3,161.4,54.4c28.1,11.7,51.2,22.2,71.5,31.4   c41,18.7,73.3,33.4,123.3,46.9c30.7,8.3,63.9,12.8,101.4,13.9c181.5,5.4,304.1-34,364.4-116.9c82.4-113.2,35.5-289.5,1.3-418.2   l-0.6-2.4c-13.7-51.5-28.6-89.5-43-126.2c-20.8-53-42.3-107.9-58.3-199.6c-8.2-47.2-13.5-95.4-15.6-143.5   c-1.4-30.6-26.2-54.4-56.5-54.4c-0.1,0-0.3,0-0.4,0l-619.7,4.1c-22.4,0.1-40.6,18.5-40.6,40.9V2295c0,90.3-53,173.2-135,211.3   c-31.5,14.7-62.8,29.5-93.1,44.1c-154.8,74.8-273.2,139.4-377.5,196.6c-4.8,6-11.8,10-19.8,10.8   c-191.3,104.9-331.9,180.9-540.5,227.4c-83.7,18.7-171.4,30.8-260.6,35.8c-0.5,0-1,0-1.6,0c-48.5,0.1-91.4,35.3-97.7,80   c-2,14,3.2,52.8,93.1,109.9C1333.3,3276.4,1449.2,3267.8,1571.9,3258.8z"/>
	<path d="M1873.7,1976.5c0-106.9-43.7-203.7-114.2-273.7l-245.8,463.1c-4.7,8.9-13.8,14.8-23.8,15.5c-0.7,0-1.3,0.1-2,0.1   c-9.4,0-18.2-4.5-23.7-12.2l-207.8-288.8c-9.4-13.1-6.4-31.4,6.7-40.8c13.1-9.4,31.4-6.4,40.8,6.7l180.3,250.6l229.8-432.9   c-63.5-46.1-141.5-73.4-225.8-73.4c-0.1,0-0.2,0-0.2,0c-0.1,0-0.2,0-0.2,0c-212.6,0.1-385.6,173.1-385.6,385.8   c0,212.7,173.1,385.8,385.8,385.8S1873.7,2189.2,1873.7,1976.5z"/>
	<path d="M3586.1,3177.9c-18.8-14.8-58.3,5.1-121.2,38.8c-69.8,37.3-165.3,88.5-289.4,106.5c-147.9,21.5-239.5-17-336.4-57.8   c-92.8-39-188.8-79.4-350.6-74.2c-68.1,2.2-99.3,11.1-272,60.8c-47.1,13.5-104.5,30-175.8,50.1c-10.8,3-21.4,6.2-31.9,9.3   c-36.5,10.8-71,21-107.5,26.3c-142,20.9-471.9,22.8-676.9,21.7c-16.9-0.1-30.8,13.1-31.8,30.1c-0.4,6.7-0.5,15.8-0.1,24.2   c0.6,12.7,10,23.3,22.6,25.3c46.4,7.5,165.5,25.7,231.7,29.8c1.6,0,3.1,0.1,4.6,0.1h2066.2c31.9,0,59.5-22.1,66.5-53.2   C3612.6,3290.5,3607.3,3194.7,3586.1,3177.9z"/>
	<path d="M1484.6,2928.3c199.8-44.5,330.1-114.6,522.5-220.1l14.6-188.1c4.4-132.3,10.3-261.7,17.5-384.6   c5.6-95.4,18.8-274,18.9-275.8c5.7-72.5,11.1-135.7,16.5-193.1c1.4-15.2,13.8-27.7,29.1-27.7c17.5,0,30.8,15,29.2,32   c-5.3,55.8-10.5,117.1-16,187.2l178.7,520.1l57.1,147.6c18.5-9.1,37.4-18.4,57-27.9c31.7-15.3,64.4-30.8,97.3-46.1   c0-0.1,0.1-0.1,0.1-0.2l-22.5-380c0-0.3,0-0.7,0-1c-4.9-200.5-59-388-156.4-542.2c-9.7-15.3-18.6-29.9-27-43.7   c-42.3-69.3-70.3-115.1-127.9-142.3c-121-57-243.3-114.4-363.5-170.7c-76.9-36.2-126.6-114.4-126.6-199.3l0.3-109.3   c0-11.9-12.8-19.6-23.2-13.7c-52.4,29.8-111.2,46.5-172.4,46.5c-58,0-113.5-14.5-163.3-40.8c-11.6-6.1-25.6,2.3-25.6,15.5v100.9   c0,85-49.7,163.2-126.5,199.3l-79.4,37.3c-94.6,44.4-189.3,88.8-284,133.5c-73.8,34.9-129.1,100-151.7,178.4   c-69.5,240.4-138.9,480.6-208.3,720.9l-50.8,176c-3.7,12.9-2.1,27.1,5.4,38.2c8.4,12.4,21.8,19.7,36.7,19.4l182.7-0.9   c17.3-0.1,32.6-11.1,38.2-27.5l197.9-583.8c-5-63.7-10.4-127.1-16.2-189.8c-1.5-15.8,9.1-30.9,24.7-33.2   c16.7-2.4,31.8,9.6,33.3,26.2c6,64.8,11.6,130.3,16.7,196c0.2,1.2,0.3,2.4,0.3,3.6c7,89.8,13.3,180.2,18.6,270.5   c14,239.9,22.4,488,25,737.7c0.6,56.7,27.7,109.9,73.2,143.9l34.1,25.5c10.1,7.6,24.7,5.1,31.3-5.7c27.4-44.3,77.7-73.8,134.1-74.2   C1320,2957.9,1404.2,2946.3,1484.6,2928.3z M1043.6,1976.5c0-235.2,183.7-428.1,415.1-443.2v-512.6c0-15.3,11.2-28.9,26.4-30.3   c17.4-1.7,32.1,12,32.1,29.1v513.9c83.1,5.4,159.9,33.8,224.4,78.8l67-126.2c7.2-13.5,23.4-20.3,37.5-14.4   c16.2,6.7,22.7,25.7,14.7,40.7l-72.7,137c88.6,81.3,144.2,197.9,144.2,327.3c0,235.1-183.6,428.1-415,443.2v393.7   c0,15.3-11.2,28.9-26.4,30.3c-17.4,1.7-32.1-12-32.1-29.1v-394.9C1227.3,2404.6,1043.6,2211.6,1043.6,1976.5z"/>
</g>
</svg>
